HIERARCHY
ROOT Hips
{
	OFFSET 0.000000 97.167313 0.000000
	CHANNELS 6 Xposition Yposition Zposition Xrotation Yrotation Zrotation
	JOINT Spine
	{
		OFFSET 0.000000 13.784798 0.064400
		CHANNELS 3 Xrotation Yrotation Zrotation
		JOINT Spine1
		{
			OFFSET 0.000000 12.037903 0.404700
			CHANNELS 3 Xrotation Yrotation Zrotation
			JOINT Spine2
			{
				OFFSET 0.000000 17.795601 0.420200
				CHANNELS 3 Xrotation Yrotation Zrotation
				JOINT Neck
				{
					OFFSET 0.000000 39.131302 11.954600
					CHANNELS 3 Xrotation Yrotation Zrotation
					JOINT Head
					{
						OFFSET 0.000000 14.456192 15.627699
						CHANNELS 3 Xrotation Yrotation Zrotation
						JOINT HeadTop_End
						{
							OFFSET 0.000000 15.703506 7.603401
							CHANNELS 3 Xrotation Yrotation Zrotation
							End Site
							{
								OFFSET 0.000000 17.447403 0.000000
							}
						}
					}
				}
				JOINT LeftShoulder
				{
					OFFSET 17.399500 24.608795 1.168800
					CHANNELS 3 Xrotation Yrotation Zrotation
					JOINT LeftArm
					{
						OFFSET 18.980635 5.765305 1.818600
						CHANNELS 3 Xrotation Yrotation Zrotation
						JOINT LeftForeArm
						{
							OFFSET 49.290169 0.000000 0.000000
							CHANNELS 3 Xrotation Yrotation Zrotation
							JOINT LeftHand
							{
								OFFSET 31.562012 0.000000 0.000000
								CHANNELS 3 Xrotation Yrotation Zrotation
								JOINT LeftHandThumb1
								{
									OFFSET 6.133995 -4.388519 7.076070
									CHANNELS 3 Xrotation Yrotation Zrotation
									JOINT LeftHandThumb2
									{
										OFFSET 6.037666 -3.485840 3.485847
										CHANNELS 3 Xrotation Yrotation Zrotation
										JOINT LeftHandThumb3
										{
											OFFSET 6.496506 -3.750763 3.750761
											CHANNELS 3 Xrotation Yrotation Zrotation
											JOINT LeftHandThumb4
											{
												OFFSET 5.616882 -3.242905 3.242910
												CHANNELS 3 Xrotation Yrotation Zrotation
												End Site
												{
													OFFSET -1.254608 7.132141 0.375429
												}
											}
										}
									}
								}
								JOINT LeftHandPinky1
								{
									OFFSET 18.920792 -0.453171 -11.426712
									CHANNELS 3 Xrotation Yrotation Zrotation
									JOINT LeftHandPinky2
									{
										OFFSET 4.919586 0.000000 0.000000
										CHANNELS 3 Xrotation Yrotation Zrotation
										JOINT LeftHandPinky3
										{
											OFFSET 5.233047 0.000000 0.000000
											CHANNELS 3 Xrotation Yrotation Zrotation
											JOINT LeftHandPinky4
											{
												OFFSET 5.571716 0.000000 0.000000
												CHANNELS 3 Xrotation Yrotation Zrotation
												End Site
												{
													OFFSET -3.459808 4.342407 -0.466164
												}
											}
										}
									}
								}
								JOINT LeftHandRing1
								{
									OFFSET 22.726120 -0.094986 -6.500475
									CHANNELS 3 Xrotation Yrotation Zrotation
									JOINT LeftHandRing2
									{
										OFFSET 6.408615 0.000000 0.000000
										CHANNELS 3 Xrotation Yrotation Zrotation
										JOINT LeftHandRing3
										{
											OFFSET 6.150223 0.000000 0.000000
											CHANNELS 3 Xrotation Yrotation Zrotation
											JOINT LeftHandRing4
											{
												OFFSET 6.145386 0.000000 0.000000
												CHANNELS 3 Xrotation Yrotation Zrotation
												End Site
												{
													OFFSET -3.671402 4.923981 -0.202372
												}
											}
										}
									}
								}
								JOINT LeftHandMiddle1
								{
									OFFSET 23.373947 0.000000 0.000001
									CHANNELS 3 Xrotation Yrotation Zrotation
									JOINT LeftHandMiddle2
									{
										OFFSET 6.996567 0.000000 0.000000
										CHANNELS 3 Xrotation Yrotation Zrotation
										JOINT LeftHandMiddle3
										{
											OFFSET 7.015945 0.000000 0.000000
											CHANNELS 3 Xrotation Yrotation Zrotation
											JOINT LeftHandMiddle4
											{
												OFFSET 7.721573 0.000000 0.000000
												CHANNELS 3 Xrotation Yrotation Zrotation
												End Site
												{
													OFFSET -4.651108 6.158463 0.251582
												}
											}
										}
									}
								}
								JOINT LeftHandIndex1
								{
									OFFSET 21.310577 -0.490082 6.209344
									CHANNELS 3 Xrotation Yrotation Zrotation
									JOINT LeftHandIndex2
									{
										OFFSET 7.536453 0.000000 0.000000
										CHANNELS 3 Xrotation Yrotation Zrotation
										JOINT LeftHandIndex3
										{
											OFFSET 7.512344 0.000000 0.000000
											CHANNELS 3 Xrotation Yrotation Zrotation
											JOINT LeftHandIndex4
											{
												OFFSET 10.212402 0.000000 0.000001
												CHANNELS 3 Xrotation Yrotation Zrotation
												End Site
												{
													OFFSET -5.180801 8.690506 1.388433
												}
											}
										}
									}
								}
							}
						}
					}
				}
				JOINT RightShoulder
				{
					OFFSET -17.399500 24.608795 1.168800
					CHANNELS 3 Xrotation Yrotation Zrotation
					JOINT RightArm
					{
						OFFSET -18.980635 5.765305 1.818600
						CHANNELS 3 Xrotation Yrotation Zrotation
						JOINT RightForeArm
						{
							OFFSET -49.290169 0.000000 0.000000
							CHANNELS 3 Xrotation Yrotation Zrotation
							JOINT RightHand
							{
								OFFSET -31.562012 0.000000 0.000000
								CHANNELS 3 Xrotation Yrotation Zrotation
								JOINT RightHandThumb1
								{
									OFFSET -6.133995 -4.388519 7.076070
									CHANNELS 3 Xrotation Yrotation Zrotation
									JOINT RightHandThumb2
									{
										OFFSET -6.037666 -3.485840 3.485847
										CHANNELS 3 Xrotation Yrotation Zrotation
										JOINT RightHandThumb3
										{
											OFFSET -6.496506 -3.750763 3.750761
											CHANNELS 3 Xrotation Yrotation Zrotation
											JOINT RightHandThumb4
											{
												OFFSET -5.616882 -3.242905 3.242910
												CHANNELS 3 Xrotation Yrotation Zrotation
												End Site
												{
													OFFSET 1.254608 7.132141 0.375429
												}
											}
										}
									}
								}
								JOINT RightHandIndex1
								{
									OFFSET -21.310577 -0.490082 6.209344
									CHANNELS 3 Xrotation Yrotation Zrotation
									JOINT RightHandIndex2
									{
										OFFSET -7.536453 0.000000 0.000000
										CHANNELS 3 Xrotation Yrotation Zrotation
										JOINT RightHandIndex3
										{
											OFFSET -7.512344 0.000000 0.000000
											CHANNELS 3 Xrotation Yrotation Zrotation
											JOINT RightHandIndex4
											{
												OFFSET -10.212402 0.000000 0.000001
												CHANNELS 3 Xrotation Yrotation Zrotation
												End Site
												{
													OFFSET 5.180801 8.690506 1.388433
												}
											}
										}
									}
								}
								JOINT RightHandMiddle1
								{
									OFFSET -23.373947 0.000000 0.000001
									CHANNELS 3 Xrotation Yrotation Zrotation
									JOINT RightHandMiddle2
									{
										OFFSET -6.996567 0.000000 0.000000
										CHANNELS 3 Xrotation Yrotation Zrotation
										JOINT RightHandMiddle3
										{
											OFFSET -7.015945 0.000000 0.000000
											CHANNELS 3 Xrotation Yrotation Zrotation
											JOINT RightHandMiddle4
											{
												OFFSET -7.721573 0.000000 0.000000
												CHANNELS 3 Xrotation Yrotation Zrotation
												End Site
												{
													OFFSET 4.651108 6.158463 0.251582
												}
											}
										}
									}
								}
								JOINT RightHandRing1
								{
									OFFSET -22.726120 -0.094986 -6.500475
									CHANNELS 3 Xrotation Yrotation Zrotation
									JOINT RightHandRing2
									{
										OFFSET -6.408615 0.000000 0.000000
										CHANNELS 3 Xrotation Yrotation Zrotation
										JOINT RightHandRing3
										{
											OFFSET -6.150223 0.000000 0.000000
											CHANNELS 3 Xrotation Yrotation Zrotation
											JOINT RightHandRing4
											{
												OFFSET -6.145386 0.000000 0.000000
												CHANNELS 3 Xrotation Yrotation Zrotation
												End Site
												{
													OFFSET 3.671402 4.923981 -0.202372
												}
											}
										}
									}
								}
								JOINT RightHandPinky1
								{
									OFFSET -18.920792 -0.453171 -11.426712
									CHANNELS 3 Xrotation Yrotation Zrotation
									JOINT RightHandPinky2
									{
										OFFSET -4.919586 0.000000 0.000000
										CHANNELS 3 Xrotation Yrotation Zrotation
										JOINT RightHandPinky3
										{
											OFFSET -5.233047 0.000000 0.000000
											CHANNELS 3 Xrotation Yrotation Zrotation
											JOINT RightHandPinky4
											{
												OFFSET -5.571716 0.000000 0.000000
												CHANNELS 3 Xrotation Yrotation Zrotation
												End Site
												{
													OFFSET 3.459808 4.342407 -0.466164
												}
											}
										}
									}
								}
							}
						}
					}
				}
			}
		}
	}
	JOINT LeftUpLeg
	{
		OFFSET 19.899099 -7.885101 -3.429500
		CHANNELS 3 Xrotation Yrotation Zrotation
		JOINT LeftLeg
		{
			OFFSET 1.745560 -36.997807 10.304700
			CHANNELS 3 Xrotation Yrotation Zrotation
			JOINT LeftFoot
			{
				OFFSET -1.745558 -29.803308 -13.615400
				CHANNELS 3 Xrotation Yrotation Zrotation
				JOINT LeftToeBase
				{
					OFFSET 1.181900 -18.539904 15.226099
					CHANNELS 3 Xrotation Yrotation Zrotation
					JOINT LeftToe_End
					{
						OFFSET -0.863701 1.402801 16.534700
						CHANNELS 3 Xrotation Yrotation Zrotation
						End Site
						{
							OFFSET 0.000000 16.616566 0.000000
						}
					}
				}
			}
		}
	}
	JOINT RightUpLeg
	{
		OFFSET -19.899099 -7.885101 -3.429500
		CHANNELS 3 Xrotation Yrotation Zrotation
		JOINT RightLeg
		{
			OFFSET -1.745560 -36.997807 10.304700
			CHANNELS 3 Xrotation Yrotation Zrotation
			JOINT RightFoot
			{
				OFFSET 1.745558 -29.803308 -13.615400
				CHANNELS 3 Xrotation Yrotation Zrotation
				JOINT RightToeBase
				{
					OFFSET -1.181900 -18.539904 15.226099
					CHANNELS 3 Xrotation Yrotation Zrotation
					JOINT RightToe_End
					{
						OFFSET 0.863701 1.402801 16.534700
						CHANNELS 3 Xrotation Yrotation Zrotation
						End Site
						{
							OFFSET 0.000000 16.616566 0.000000
						}
					}
				}
			}
		}
	}
}
MOTION
Frames: 5
Frame Time: 0.033333
-13.016499 89.463593 -31.744293 41.218457 85.632260 -42.167624 6.981084 -0.841081 1.158897 2.820739 -1.130250 1.213659 -3.138213 -1.313071 -0.582088 4.191855 -25.641944 3.582769 -3.631741 -24.741758 3.994343 -0.000000 0.000002 -0.000000 1.718635 2.418013 -8.082818 1.678579 0.750464 -65.907398 10.695888 -11.793911 -6.771126 -4.407394 -1.797163 8.673541 -6.935533 10.777110 18.040707 2.761086 3.119596 -0.905662 -0.228272 3.002350 2.438001 -0.000002 -0.000002 -0.000002 -5.717727 2.856903 -11.050832 0.006993 0.173308 -15.382810 -0.009469 0.086152 -3.233444 0.000002 -0.000000 -0.000004 -4.338380 4.208935 -1.693000 -0.102703 0.222783 -13.397186 -0.029815 0.426273 -1.442962 -0.000000 0.000000 0.000003 -1.651542 2.633896 -1.550362 -0.031677 0.395598 -9.139529 0.021823 0.030402 -0.024256 0.000001 -0.000000 0.000008 1.523029 3.281176 2.738816 -0.046768 0.202375 -3.915733 -0.001890 0.128255 -0.409923 0.000000 0.000001 0.000001 2.655613 6.741220 -0.449658 -10.208013 -11.794096 68.952098 16.709561 16.430768 -4.678789 -22.684043 -5.228267 -10.842768 12.155121 -4.479643 -6.178496 2.135604 -1.518688 1.369512 0.692810 -4.954033 -2.828577 0.000000 -0.000003 -0.000006 2.389468 -1.757786 14.568840 -0.010358 -0.197786 15.070123 0.030668 -0.135887 12.411437 -0.000000 -0.000001 0.000001 -0.345261 -6.630503 13.855928 0.011417 -0.368102 17.309735 0.021524 -0.011465 8.492858 0.000001 0.000000 -0.000004 -1.850800 -10.847413 11.046819 -0.075032 -0.191324 19.624733 0.012890 -0.397878 9.749320 -0.000003 -0.000001 -0.000002 -3.264471 -10.023885 16.724563 0.039315 -0.109288 19.036212 0.004190 -0.099948 8.422405 0.000002 -0.000001 0.000000 -23.824745 37.174292 27.865401 23.184369 -10.991660 -1.349285 -5.721737 18.084386 -15.726055 -5.892321 6.577839 -4.005498 0.000000 0.000001 -0.000000 -27.132556 -40.864253 -36.021520 16.740737 -4.023092 3.875721 -1.118287 20.570850 11.969857 -2.107581 -6.611643 2.941185 -0.000000 -0.000002 -0.000000 
-12.999176 88.620941 -34.415714 88.280953 86.959530 -89.714330 6.613240 -0.303688 0.427742 2.858283 -0.675760 1.379893 -2.901443 -0.866380 -0.354803 4.149144 -26.694374 3.735858 -3.112518 -25.783148 4.453827 0.000000 -0.000003 0.000000 1.755807 2.690026 -8.412423 1.546016 2.358105 -65.478462 11.878532 -12.819965 -6.682339 -5.623114 0.832571 8.420717 -7.341202 10.966371 18.377693 2.618835 3.054961 -0.740013 0.087122 3.639240 2.511069 0.000000 0.000001 -0.000002 -5.556956 2.427175 -11.039106 0.004226 0.166412 -14.991160 -0.009493 0.085770 -3.234676 -0.000000 0.000002 0.000001 -4.327648 3.940273 -2.085358 -0.102788 0.212981 -12.979581 -0.030679 0.408862 -1.271743 -0.000000 0.000000 0.000002 -1.589851 2.293653 -1.613959 -0.032053 0.378420 -9.012075 0.022370 0.030985 -0.281784 -0.000001 0.000000 0.000009 1.543089 2.973108 2.608883 -0.047651 0.197281 -4.071596 -0.001419 0.128002 -0.397493 -0.000002 0.000003 0.000003 2.690419 6.681769 -0.916567 -12.407145 -15.445791 68.925386 16.655556 15.016190 -3.798844 -21.465014 -5.296512 -11.716766 13.224652 -4.937236 -6.377569 1.977676 -1.239268 1.380707 0.677308 -4.821748 -2.751781 0.000001 0.000001 -0.000004 2.362597 -1.654534 14.687094 -0.012754 -0.193517 14.701736 0.030225 -0.135607 12.300681 -0.000001 -0.000001 -0.000001 -0.296838 -6.671563 13.768346 0.009949 -0.357884 16.520868 0.021163 -0.011033 8.254007 -0.000002 0.000001 -0.000004 -1.759796 -10.911765 10.930779 -0.072485 -0.183986 18.609873 0.007701 -0.387265 9.196411 -0.000001 0.000001 -0.000003 -3.160169 -10.046592 16.195634 0.038344 -0.109847 18.193215 0.002762 -0.097422 7.792922 0.000000 0.000001 0.000002 -27.169839 36.610767 27.070697 28.114969 -14.002224 -1.343852 -9.587856 18.245368 -11.566677 -6.178363 6.205599 -3.752947 0.000000 -0.000000 -0.000000 -25.798017 -39.127821 -36.640939 18.309229 -5.438005 4.198405 -1.353847 17.308905 12.312489 -3.461254 -6.175218 2.957237 0.000000 0.000001 0.000000 
-12.940178 87.743973 -37.107277 136.157349 85.475637 -137.986746 6.372153 0.254155 -0.322496 2.819100 -0.225053 1.599157 -2.747431 -0.422516 -0.077095 3.957798 -27.427869 3.394911 -2.389331 -26.662815 5.054908 -0.000000 -0.000000 -0.000000 1.743033 2.664940 -8.179453 1.181260 3.368923 -65.795007 11.873653 -12.475506 -6.901253 -6.296806 1.809304 9.584467 -7.769027 11.152545 18.708604 2.479698 3.011388 -0.560364 0.445711 4.384155 2.602309 0.000000 0.000001 -0.000006 -5.405476 1.978803 -11.085325 0.001295 0.159639 -14.606230 -0.009376 0.085610 -3.297621 -0.000001 -0.000001 -0.000006 -4.320651 3.652792 -2.597885 -0.102133 0.202923 -12.571587 -0.030673 0.390664 -1.213601 0.000000 0.000001 0.000002 -1.527596 1.917362 -1.735487 -0.032480 0.360677 -8.950358 0.022984 0.031708 -0.636574 -0.000001 0.000000 0.000009 1.546797 2.622256 2.422739 -0.048406 0.190424 -4.309376 -0.000895 0.123821 -0.476803 0.000002 -0.000000 0.000003 2.721257 6.657820 -1.378293 -13.825848 -18.794970 68.691206 16.775266 14.328975 -3.264411 -20.640473 -5.744512 -12.477869 14.075752 -5.383327 -6.614080 1.854915 -1.022427 1.390069 0.665169 -4.719058 -2.692171 -0.000000 -0.000000 -0.000002 2.341305 -1.574500 14.778955 -0.014866 -0.189840 14.415753 0.029810 -0.134717 12.214673 -0.000001 -0.000001 -0.000002 -0.259265 -6.703529 13.700540 0.008814 -0.349870 15.908590 0.020946 -0.010958 8.068614 0.000000 -0.000000 -0.000001 -1.689342 -10.961925 10.840862 -0.070444 -0.177808 17.822142 0.003548 -0.378957 8.767239 -0.000000 -0.000000 -0.000003 -3.079728 -10.066148 15.785260 0.037454 -0.108958 17.538751 0.001688 -0.095219 7.304299 -0.000000 0.000003 -0.000001 -29.065074 35.212238 25.373419 32.412629 -14.870744 -1.223250 -12.920238 17.029163 -8.102124 -6.183927 5.923358 -3.729671 0.000000 -0.000001 0.000000 -24.011479 -36.676384 -36.731596 20.740440 -7.346954 4.388943 -2.039112 14.140682 12.412334 -5.196771 -5.595454 2.983216 0.000000 0.000002 -0.000000 
-12.789765 87.073296 -39.898064 157.398772 82.242861 -159.675288 6.150493 0.660844 -0.110608 2.860305 0.214978 1.277954 -2.519687 0.018257 -0.336339 4.432844 -27.717457 4.092440 -2.213288 -26.820756 5.014083 0.000000 -0.000001 -0.000000 1.725131 2.603945 -7.879271 0.155123 3.979635 -65.556436 11.972950 -11.114166 -7.263644 -6.826996 2.042559 10.672644 -8.208923 11.327367 19.025962 2.344824 2.986187 -0.370119 0.837342 5.215935 2.706190 0.000003 0.000001 -0.000002 -5.265005 1.516936 -11.180953 -0.001484 0.152720 -14.230918 -0.009184 0.085348 -3.413366 -0.000002 -0.000001 -0.000002 -4.327442 3.350691 -3.213441 -0.099195 0.192757 -12.175996 -0.030249 0.372178 -1.253850 0.000001 -0.000000 0.000002 -1.466795 1.513431 -1.905623 -0.032743 0.342710 -8.947955 0.023653 0.031443 -1.076421 0.000001 0.000001 0.000009 1.534571 2.238096 2.189389 -0.049012 0.183488 -4.619128 -0.000229 0.118178 -0.636584 -0.000000 0.000002 -0.000001 2.724958 6.499238 -1.407012 -14.090626 -20.419798 68.666487 16.666059 13.777703 -2.904974 -20.706661 -5.872021 -12.862475 14.661747 -5.805480 -6.904718 1.771432 -0.876896 1.397202 0.657122 -4.649816 -2.652168 -0.000000 -0.000001 -0.000001 2.326940 -1.520629 14.840826 -0.016468 -0.186434 14.223160 0.029304 -0.131180 12.156731 -0.000002 -0.000001 -0.000002 -0.233922 -6.725122 13.654806 0.008364 -0.344432 15.496149 0.020755 -0.011076 7.943715 0.000001 -0.000000 -0.000001 -1.641953 -10.995838 10.780374 -0.068984 -0.173038 17.291577 0.000520 -0.372922 8.478187 -0.000001 -0.000000 -0.000003 -3.025784 -10.080299 15.508855 0.036648 -0.108139 17.098001 0.001004 -0.093338 6.975187 -0.000003 -0.000003 0.000003 -29.801744 33.525092 22.947305 35.781524 -15.084681 -1.041994 -15.606397 15.351443 -5.001393 -6.184496 5.716897 -3.706098 0.000001 -0.000002 -0.000000 -20.966872 -34.141349 -36.036823 23.004526 -10.183220 4.493985 -2.714873 11.637140 12.760007 -7.024432 -4.950970 3.029575 0.000000 0.000001 0.000000 
-12.566158 86.620026 -42.742069 167.383143 78.144228 -170.145381 5.956949 0.969455 0.396956 3.038201 0.585491 0.931075 -2.154108 0.392731 -0.620528 3.981678 -27.236298 4.299404 -1.632794 -26.160224 4.617750 -0.000000 -0.000004 0.000000 1.719305 2.663217 -7.801669 -1.722722 3.950192 -65.031918 12.273150 -8.821035 -7.764621 -7.162070 1.583255 11.319229 -8.650464 11.483213 19.321832 2.214693 2.977100 -0.173157 1.252178 6.113098 2.817503 -0.000001 -0.000002 -0.000004 -5.137095 1.046812 -11.317745 -0.004265 0.145658 -13.867968 -0.008906 0.085057 -3.572985 -0.000002 -0.000000 -0.000004 -4.357588 3.038451 -3.915272 -0.095424 0.182625 -11.795420 -0.030077 0.353745 -1.377877 -0.000002 -0.000001 0.000003 -1.409395 1.090200 -2.115301 -0.032770 0.324687 -8.998206 0.024350 0.031285 -1.588637 0.000000 0.000000 0.000004 1.507884 1.829862 1.917951 -0.049460 0.176542 -4.990969 0.000636 0.112611 -0.865619 -0.000000 0.000000 -0.000002 2.709181 6.037262 -1.036713 -12.951521 -20.305679 68.830596 16.954860 14.204346 -2.952571 -21.297684 -6.021488 -12.648225 14.942214 -6.198680 -7.271833 1.732016 -0.810916 1.401143 0.653692 -4.617847 -2.633923 -0.000001 -0.000000 -0.000003 2.320188 -1.496132 14.869204 -0.017992 -0.183191 14.134821 0.028757 -0.127709 12.130171 -0.000000 -0.000003 -0.000001 -0.222179 -6.734950 13.633877 0.008771 -0.340953 15.307064 0.020648 -0.011456 7.886463 0.000001 -0.000000 -0.000006 -1.620223 -11.011359 10.752675 -0.067424 -0.169862 17.048292 -0.001093 -0.369597 8.345684 -0.000001 -0.000001 -0.000002 -3.001226 -10.087045 15.382117 0.036023 -0.107735 16.895902 0.000657 -0.091887 6.824274 0.000002 0.000001 0.000004 -29.555649 31.568701 20.015120 38.267501 -14.864896 -0.817610 -17.655831 13.366874 -2.288290 -6.184078 5.582053 -3.682066 0.000001 0.000002 0.000001 -17.158163 -31.650936 -34.328886 24.700180 -11.596252 4.465146 -3.093365 7.958881 12.967300 -8.654621 -4.319878 3.102157 0.000000 0.000000 -0.000001 
